<?xml version="1.0" encoding="UTF-8"?>
<svg id="Layer_1" data-name="Layer 1" xmlns="http://www.w3.org/2000/svg" viewBox="0 0 550.55 232.63">
  <defs>
    <style>
      .cls-1 {
        fill: #231f20;
      }

      .cls-2 {
        fill: #dcac50;
      }

      .cls-3 {
        fill: #185038;
      }
    </style>
  </defs>
  <path class="cls-1" d="M289.62,111.57h-21.33c-.55,0-.97.52-.83,1.06.96,3.68,4.5,5.81,8.52,5.81,2.8,0,5.92-.75,8.53-2.64.39-.28.93-.22,1.21.17l2.8,3.9c.25.35.21.83-.1,1.12-3.26,2.95-8.18,4.32-12.76,4.32-9.73,0-16.92-5.92-16.92-16.35s7.57-16.48,16.8-16.48c8.65,0,15.08,5.34,15.08,15.78,0,.84-.04,1.72-.15,2.58-.05.42-.42.73-.85.73ZM268.36,106.1h13.31c.52,0,.92-.46.85-.98-.52-3.93-3.47-5.89-7.24-5.89s-6.79,1.89-7.75,5.81c-.13.54.28,1.06.83,1.06Z"/>
  <path class="cls-1" d="M325.5,111.57h-21.33c-.55,0-.97.52-.83,1.06.96,3.68,4.5,5.81,8.52,5.81,2.8,0,5.92-.75,8.53-2.64.39-.28.93-.22,1.21.17l2.8,3.9c.25.35.21.83-.1,1.12-3.26,2.95-8.18,4.32-12.76,4.32-9.73,0-16.92-5.92-16.92-16.35s7.57-16.48,16.8-16.48c8.65,0,15.08,5.34,15.08,15.78,0,.84-.04,1.72-.15,2.58-.05.42-.42.73-.85.73ZM304.24,106.1h13.31c.52,0,.92-.46.85-.98-.52-3.93-3.47-5.89-7.24-5.89s-6.79,1.89-7.75,5.81c-.13.54.28,1.06.83,1.06Z"/>
  <path class="cls-1" d="M333.58,93.19h5.99c.48,0,.86.39.85.86-.02,1.35-.09,2.84-.25,4.93h.19c1.78-4.07,5.73-6.43,10.88-6.43,7.89,0,12.92,4.45,12.92,14.06v17.15c0,.47-.38.85-.85.85h-6.76c-.47,0-.85-.38-.85-.85v-16.33c0-4.96-2.48-7.7-6.74-7.7s-7.76,3.31-7.76,8.27v15.75c0,.47-.38.85-.85.85h-6.76c-.47,0-.85-.38-.85-.85v-29.72c0-.47.38-.85.85-.85Z"/>
  <path class="cls-1" d="M383.81,91.28v1.12c0,.47.38.85.85.85h7.27c.47,0,.85.38.85.85v5.17c0,.47-.38.85-.85.85h-7.27c-.47,0-.85.38-.85.85v22.79c0,.47-.38.85-.85.85h-6.76c-.47,0-.85-.38-.85-.85v-22.79c0-.47-.38-.85-.85-.85h-4.08c-.47,0-.85-.38-.85-.85v-5.23c0-.47.38-.85.85-.85h4.08c.47,0,.85-.38.85-.85v-.87c0-8.46,5.66-12.28,12.15-12.28,2.98,0,5.5.62,7.64,1.72.4.2.55.69.37,1.1l-1.98,4.38c-.19.43-.7.62-1.13.42-1.21-.57-2.44-.88-3.76-.88-2.93,0-4.84,1.65-4.84,5.34Z"/>
  <path class="cls-1" d="M398.46,86.2c0-2.93,2.16-4.96,5.15-4.96s5.22,2.04,5.22,4.96-2.16,4.84-5.22,4.84-5.15-2.04-5.15-4.84ZM400.37,93.19h6.76c.47,0,.85.38.85.85v29.72c0,.47-.38.85-.85.85h-6.76c-.47,0-.85-.38-.85-.85v-29.72c0-.47.38-.85.85-.85Z"/>
  <path class="cls-1" d="M444.72,111.57h-21.33c-.55,0-.97.52-.83,1.06.96,3.68,4.5,5.81,8.52,5.81,2.8,0,5.92-.75,8.53-2.64.39-.28.93-.22,1.21.17l2.8,3.9c.25.35.21.83-.1,1.12-3.26,2.95-8.18,4.32-12.76,4.32-9.73,0-16.92-5.92-16.92-16.35s7.57-16.48,16.8-16.48c8.65,0,15.08,5.34,15.08,15.78,0,.84-.04,1.72-.15,2.58-.05.42-.42.73-.85.73ZM423.46,106.1h13.31c.52,0,.92-.46.85-.98-.52-3.93-3.47-5.89-7.24-5.89s-6.79,1.89-7.75,5.81c-.13.54.28,1.06.83,1.06Z"/>
  <path class="cls-1" d="M451.94,114.37v-33.44c0-.47.38-.85.85-.85h6.76c.47,0,.85.38.85.85v32.55c0,3.31,1.02,4.71,3.69,4.71.66,0,1.3-.06,1.92-.21.46-.11.91.17,1.02.63l1.15,4.83c.1.43-.14.86-.56,1.01-1.71.59-3.87.93-5.76.93-6.55,0-9.93-3.75-9.93-11.01Z"/>
  <path class="cls-1" d="M471.03,109.03c0-9.93,6.43-16.54,15.08-16.54,5.15,0,9.03,2.55,11.07,6.24h.13c-.7-3.12-.89-6.36-.89-9.29v-8.5c0-.47.38-.85.85-.85h6.82c.47,0,.85.38.85.85v42.83c0,.47-.38.85-.85.85h-5.99c-.47,0-.85-.38-.85-.85v-4.24h-.13c-1.65,3.05-5.92,5.79-11.13,5.79-8.59,0-14.95-6.24-14.95-16.29ZM496.6,109.03c0-5.54-3.5-9.29-8.46-9.29s-8.72,3.75-8.72,9.03,3.5,9.29,8.59,9.29,8.59-3.69,8.59-9.03Z"/>
  <g>
    <path class="cls-1" d="M227.82,99.64v18.14c0,.23-.09.45-.25.61-4.68,4.79-10.77,7.19-18.27,7.19-14,0-23.16-9.1-23.16-23.03s9.8-23.48,23.79-23.48c6.51,0,11.94,2.23,15.85,5.34.36.28.41.81.14,1.17l-3.65,4.9c-.28.38-.81.45-1.19.17-3.31-2.41-6.87-3.75-11.15-3.75-9.1,0-14.95,5.98-14.95,15.27s5.66,15.65,14.63,15.65c4.03,0,7.36-1.06,10.1-3.11.21-.16.34-.42.34-.69v-7.06c0-.47-.38-.85-.85-.85h-10.45c-.47,0-.85-.38-.85-.85v-5.61c0-.47.38-.85.85-.85h18.21c.47,0,.85.38.85.85Z"/>
    <path class="cls-1" d="M236.24,93.19h5.99c.48,0,.86.39.85.87-.02,1.34-.09,2.77-.25,4.54h.19c1.21-3.31,4.58-6.04,9.23-6.04,1.29,0,2.54.15,3.57.43.46.12.72.61.59,1.07l-1.68,5.69c-.13.43-.57.69-1.01.58-.79-.2-1.6-.27-2.42-.27-4.45,0-7.44,3.12-7.44,8.46v15.24c0,.47-.38.85-.85.85h-6.76c-.47,0-.85-.38-.85-.85v-29.72c0-.47.38-.85.85-.85Z"/>
    <g>
      <path class="cls-1" d="M199.86,156.3c0,.13-.04.24-.15.28-.71.26-1.77.39-2.97.39-3.99,0-7.39-2.35-7.39-7.26,0-4.33,3.02-7.33,7.71-7.33,1.4,0,2.26.13,2.8.37.09.04.13.11.13.24v2.05c0,.17-.09.17-.17.13-.69-.32-1.68-.47-2.8-.47-3.04,0-4.98,1.94-4.98,4.96,0,3.73,2.76,5,5.02,5,1.06,0,1.85-.09,2.65-.37.09-.04.15-.02.15.11v1.92Z"/>
      <path class="cls-1" d="M240.43,149.6c.02,4.46-2.74,7.37-6.66,7.37-4.18,0-6.68-3.1-6.68-7.3s2.71-7.28,6.68-7.28c4.22,0,6.64,3.23,6.66,7.22ZM233.86,154.66c2.43,0,3.9-2,3.88-5,0-3.02-1.49-4.98-4.01-4.98-2.28,0-3.94,1.79-3.94,4.98,0,2.78,1.42,5,4.07,5Z"/>
      <path class="cls-1" d="M269.35,142.59h3.45c.13,0,.17.04.22.15.65,2.18,2.52,8.58,2.95,10.58h.02c.45-1.83,2.59-8.36,3.25-10.58.04-.09.06-.15.19-.15h3.36c.11,0,.15.02.17.13l.58,13.85c.02.13-.04.17-.15.17h-2.39c-.11,0-.17-.02-.17-.15-.11-4.59-.15-10.79-.13-12.15h-.02c-.5,2.07-2.72,9.27-3.58,12.13-.02.15-.11.17-.19.17h-2.15c-.15,0-.19-.02-.21-.15-.93-3.27-2.65-9.54-3.25-12.17h-.04c-.02,2.18-.19,7.65-.41,12.17,0,.13-.04.15-.17.15h-2.15c-.13,0-.17-.02-.15-.17l.82-13.85c.02-.13.06-.13.17-.13Z"/>
      <path class="cls-1" d="M312.34,142.79c0-.11.04-.17.15-.17.82-.02,2.41-.06,3.99-.06,4.18,0,5.73,2.33,5.73,4.7,0,3.43-2.65,4.91-5.9,4.91h-1.36v4.42c0,.11-.04.17-.17.17h-2.26c-.11,0-.17-.04-.17-.15v-13.81ZM314.94,149.85c.37.02.65.02,1.36.02,1.81,0,3.34-.6,3.34-2.56,0-1.57-1.12-2.5-3.1-2.5-.75,0-1.36.02-1.59.04v5Z"/>
      <path class="cls-1" d="M351.51,153.02l-1.19,3.55c-.04.13-.11.17-.24.17h-2.15c-.13,0-.17-.06-.15-.22l4.44-12.63c.09-.22.15-.43.19-1.16,0-.09.04-.15.13-.15h2.99c.11,0,.13.02.15.13l4.98,13.83c.02.13,0,.19-.13.19h-2.41c-.11,0-.17-.04-.22-.13l-1.25-3.6h-5.15ZM355.97,150.67c-.45-1.42-1.47-4.42-1.9-5.93h-.02c-.34,1.44-1.21,3.97-1.85,5.93h3.77Z"/>
      <path class="cls-1" d="M388.38,156.75c-.13,0-.19-.02-.19-.19v-13.81c0-.11.04-.15.15-.15h3.04c.17,0,.19.04.26.15,1.59,2.84,4.89,8.92,5.65,10.54h.02c-.02-.6-.06-1.31-.06-3.34v-7.18c0-.11.06-.17.19-.17h2.07c.15,0,.19.06.19.19v13.77c0,.15-.06.19-.22.19h-2.74c-.15,0-.22-.04-.28-.15-1.12-2.2-5.06-9.16-5.9-11.25h-.02c.09,1.1.11,2.05.11,4.01v7.2c0,.13-.04.19-.17.19h-2.09Z"/>
      <path class="cls-1" d="M431.34,156.56c0,.15-.04.19-.17.19h-2.26c-.13,0-.17-.06-.17-.19v-13.79c0-.15.06-.17.17-.17h2.26c.13,0,.17.04.17.17v13.79Z"/>
      <path class="cls-1" d="M469.36,156.58c-.02.15-.06.17-.19.17h-8.58c-.15,0-.19-.06-.19-.17v-13.81c0-.11.04-.17.17-.17h8.32c.13,0,.17.02.19.15l.24,2c.02.11-.02.19-.15.19h-6.16v3.43h5.6c.11,0,.15.02.15.15v2.05c0,.11-.06.13-.15.13h-5.6v3.71h6.53c.13,0,.17.06.15.17l-.32,2Z"/>
      <path class="cls-1" d="M497.35,156.19c-.11-.06-.15-.15-.15-.32v-2.24c0-.09.09-.13.17-.09,1.16.75,2.59,1.12,3.84,1.12,1.77,0,2.52-.69,2.52-1.62,0-.8-.52-1.4-2.15-2.09l-1.03-.43c-2.65-1.12-3.34-2.46-3.34-4.07,0-2.31,1.74-4.07,5-4.07,1.36,0,2.59.19,3.3.56.11.06.13.13.13.28v2.09c0,.09-.06.17-.19.09-.82-.47-2-.71-3.25-.71-1.85,0-2.44.78-2.44,1.53s.5,1.31,2.2,2.02l.82.34c2.8,1.16,3.6,2.52,3.6,4.22,0,2.52-1.98,4.16-5.24,4.16-1.57,0-2.89-.3-3.77-.78Z"/>
    </g>
    <g>
      <path class="cls-2" d="M122.31,118.41c-4.96.42-10.34.69-16.1.7-5.51,0-10.67-.22-15.44-.59-.25-8.75,7.08-16.03,15.89-15.96,8.68.06,15.84,7.23,15.65,15.86Z"/>
      <path class="cls-3" d="M80.33,118.07c-7.05-.41-14.09-.81-21.14-1.22-2.26-.13-4.52-.26-6.77-.39-2.74-.1-5.48-.2-8.22-.3,0-3.35.29-7.45,1.22-12.03.79-3.89,1.87-7.25,2.95-10.02,7.87,4.01,16.46,7.99,25.74,11.75,5.14,2.08,10.15,3.96,15.02,5.66-.34.97-.66,2.14-.89,3.49-.22,1.34-.29,2.54-.29,3.55-2.54-.17-5.08-.33-7.62-.5Z"/>
      <path class="cls-3" d="M92.43,105.95c-11.79-9.08-23.58-18.15-35.37-27.23,1.88-2.46,4.29-5.23,7.3-8.04,3.18-2.97,6.28-5.27,8.99-7.02,8.4,12.53,16.81,25.06,25.21,37.59-1.05.5-2.34,1.23-3.68,2.3-1.02.82-1.83,1.66-2.45,2.39Z"/>
      <path class="cls-3" d="M124.89,118.57c.02-.95-.02-2.08-.21-3.33-.21-1.4-.55-2.6-.89-3.56,13.98-4.66,27.96-9.31,41.94-13.97.98,3.1,1.91,6.91,2.45,11.31.46,3.77.52,7.16.4,10.06-14.56-.17-29.12-.34-43.68-.51Z"/>
      <path class="cls-3" d="M111.45,100.14c-.92-.27-2.06-.52-3.38-.64-1.49-.14-2.79-.07-3.82.06-2.55-14.84-5.09-29.68-7.63-44.53,3.29-.51,7.34-.88,11.97-.72,4.4.15,8.25.75,11.39,1.44-2.84,14.8-5.68,29.59-8.52,44.39Z"/>
      <path class="cls-3" d="M155.19,154.67c-5.09,6.54-10.33,10.59-13.04,12.52-7.19,5.11-13.91,7.57-17.78,8.74-5.14,1.56-9.64,2.18-12.95,2.43,3.25-6.41,7.41-13.28,12.73-20.19,8.98-11.68,15.15-16.71,16.8-17.95,2.66-2.01,5.01-3.48,6.65-4.44-2.2.59-5.28,1.56-8.8,3.14-9.86,4.44-15.83,10.53-21.18,15.92-4.96,4.99-11.59,12.69-17.51,23.53-3.19-.32-6.95-.95-11.08-2.12-3.38-.96-6.35-2.11-8.87-3.24,3.84-4.7,8.41-9.76,13.78-14.91,4.89-4.68,9.66-8.69,14.11-12.1,2-1.46,3.99-2.92,5.99-4.38,1.47-1.07,3.02-1.96,4.61-2.95,1.1-.69,3.44-2.13,5.6-3.3,2.3-1.25,5.65-2.89,10.06-4.42-10.13,2.6-24.24,7.49-39.09,17.13-10.28,6.68-18.16,13.84-23.93,19.95-2.38-1.59-5.08-3.64-7.85-6.26-3.09-2.91-5.48-5.79-7.3-8.3,5.6-3.68,10.57-6.58,14.54-8.75,6.16-3.38,15.6-8.5,28.61-12.89,6.27-2.12,11.68-3.49,15.69-4.39-8.66.42-16.13,1.63-22.13,2.95-5.24,1.15-13.87,3.38-24,7.71-6.85,2.93-12.52,6.02-16.92,8.68-1.39-2.36-2.86-5.23-4.15-8.6-1.58-4.12-2.48-7.89-3.02-11.01,17.58-2.49,37.98-4.26,60.66-4.24,23.19.02,44.01,1.91,61.88,4.52-.41,2.4-1.12,5.65-2.4,9.37-1.06,3.08-3.79,10.24-9.75,17.88Z"/>
      <path class="cls-3" d="M121.46,107.3c12.22-8.49,24.44-16.99,36.67-25.48-1.7-2.45-3.82-5.17-6.46-7.96-3.18-3.37-6.34-6.01-9.11-8.04-8.75,12.2-17.5,24.39-26.24,36.59.89.58,1.93,1.36,2.98,2.39.9.88,1.61,1.74,2.16,2.51Z"/>
    </g>
  </g>
</svg>